<?xml version="1.0" encoding="utf-8"?>
<!-- Generator: Adobe Illustrator 24.0.1, SVG Export Plug-In . SVG Version: 6.00 Build 0)  -->
<svg version="1.1" id="Calque_1" focusable="false" xmlns="http://www.w3.org/2000/svg" xmlns:xlink="http://www.w3.org/1999/xlink"
	 x="0px" y="0px" viewBox="0 0 512 512" style="enable-background:new 0 0 512 512;" xml:space="preserve">
<style type="text/css">
	.st0{fill:#FF5722;}
</style>
<path class="st0" d="M464,256h-80v-64c0-35.3,28.7-64,64-64h8c13.3,0,24-10.7,24-24V56c0-13.3-10.7-24-24-24h-8
	c-88.4,0-160,71.6-160,160v240c0,26.5,21.5,48,48,48h128c26.5,0,48-21.5,48-48V304C512,277.5,490.5,256,464,256z M176,256H96v-64
	c0-35.3,28.7-64,64-64h8c13.3,0,24-10.7,24-24V56c0-13.3-10.7-24-24-24h-8C71.6,32,0,103.6,0,192v240c0,26.5,21.5,48,48,48h128
	c26.5,0,48-21.5,48-48V304C224,277.5,202.5,256,176,256z"/>
</svg>
